<svg width="30" height="30" viewBox="0 0 30 30" fill="none" xmlns="http://www.w3.org/2000/svg">
<path d="M20.3327 3.91797C20.3327 2.03319 18.7995 0.5 16.9147 0.5H3.58466C1.69988 0.5 0.166687 2.03319 0.166687 3.91797V17.248C0.166687 19.1328 1.69988 20.666 3.58466 20.666H9.05341V22.9447H11.3321V20.666H16.9147C18.7995 20.666 20.3327 19.1328 20.3327 17.248V11.7793H22.5544V9.50065H20.3327V3.91797ZM18.0541 17.248C18.0541 17.8762 17.5429 18.3874 16.9147 18.3874H3.58466C2.95647 18.3874 2.44533 17.8762 2.44533 17.248V3.91797C2.44533 3.28978 2.95647 2.77865 3.58466 2.77865H16.9147C17.5429 2.77865 18.0541 3.28978 18.0541 3.91797V17.248ZM27.0547 25.1094H29.3334V27.388C29.3334 28.6464 28.3131 29.6667 27.0547 29.6667H24.833V27.388H27.0547V25.1094ZM15.7184 27.388H17.9971V29.6667H15.7184V27.388ZM20.2757 27.388H22.5544V29.6667H20.2757V27.388ZM29.3334 11.7793V14.0579H27.0547V11.7793H24.833V9.50065H27.0547C28.3131 9.50065 29.3334 10.5209 29.3334 11.7793ZM27.0547 16.2227H29.3334V18.5013H27.0547V16.2227ZM27.0547 20.666H29.3334V22.9447H27.0547V20.666ZM11.3321 27.388H13.5537V29.6667H11.3321C10.0737 29.6667 9.05341 28.6464 9.05341 27.388V25.1094H11.3321V27.388ZM13.4398 9.27279H15.7184V16.1087H8.88251V13.8301H11.8285L7.76343 9.76501L9.37473 8.15394L13.4398 12.2188V9.27279Z" fill="white"/>
</svg>
