<svg width="16" height="17" viewBox="0 0 16 17" fill="none" xmlns="http://www.w3.org/2000/svg">
<path fill-rule="evenodd" clip-rule="evenodd" d="M15.2983 2.65836C15.7545 2.20336 15.7545 1.46369 15.2983 1.00869C14.8433 0.552523 14.1048 0.552523 13.6487 1.00869L7.90401 6.75336L2.15817 1.00869C1.70317 0.552523 0.963507 0.552523 0.508507 1.00869C0.0523401 1.46369 0.0523401 2.20336 0.508507 2.65836L6.25317 8.40419L0.508507 14.1489C0.0523401 14.605 0.0523401 15.3435 0.508507 15.7985C0.963507 16.2547 1.70317 16.2547 2.15817 15.7985L7.90401 10.0539L13.6487 15.7985C14.1048 16.2547 14.8433 16.2547 15.2983 15.7985C15.7545 15.3435 15.7545 14.605 15.2983 14.1489L9.55367 8.40419L15.2983 2.65836Z" fill="#6A6E72"/>
</svg>
